<svg width="17" height="20" viewBox="0 0 17 20" fill="none" xmlns="http://www.w3.org/2000/svg">
<path d="M16.3833 6.41672C15.9368 7.39579 14.9271 7.99549 13.8502 7.99549C11.7565 7.99549 11.4054 8.2818 10.8729 10.28L10.7621 10.6912C10.4747 11.7634 9.50382 12.5092 8.39396 12.5092H8.21488C6.03286 12.5092 5.68176 12.8025 5.12801 14.8773L5.04082 15.2049C4.75452 16.2723 3.78958 17.0158 2.68561 17.0228C1.35897 17.0299 0.302127 15.9035 0.302127 14.5769V14.5404C0.302127 13.1077 1.46383 11.946 2.89651 11.946C5.07617 11.946 5.42727 11.6467 5.98338 9.57781L6.07057 9.25027C6.35805 8.17811 7.32888 7.43232 8.43874 7.43232H8.70501C10.8057 7.43232 11.1521 7.12127 11.6823 5.14662C11.7141 5.02762 11.7459 4.91098 11.7754 4.80023C12.0617 3.73397 13.0019 2.9434 14.1059 2.91866C15.8896 2.87978 17.1597 4.71187 16.3821 6.41672H16.3833ZM16.6826 12.2806C16.6472 12.1934 16.6083 12.1086 16.5636 12.0261C16.5353 11.9719 16.5035 11.9177 16.4681 11.867C16.4516 11.8399 16.4351 11.814 16.4151 11.7893C16.3974 11.7634 16.3786 11.7386 16.3597 11.7151C16.3055 11.6455 16.249 11.5784 16.1854 11.5136C16.1618 11.4877 16.1359 11.4641 16.1111 11.4405C16.1064 11.4358 16.1017 11.4323 16.097 11.4264C16.0711 11.404 16.0463 11.3804 16.0192 11.3581C15.9933 11.3369 15.9698 11.3168 15.945 11.298C15.9356 11.2897 15.9262 11.2838 15.9167 11.2768C15.8908 11.2579 15.8661 11.2391 15.8402 11.2214C15.8142 11.2037 15.7871 11.1849 15.7612 11.1684C15.7471 11.1601 15.7329 11.1519 15.72 11.1425C15.667 11.1118 15.6163 11.0824 15.5621 11.0564C15.5409 11.0458 15.5209 11.0376 15.4985 11.0282C15.4667 11.014 15.4349 10.9975 15.4019 10.9834C15.3123 10.9469 15.2204 10.9162 15.1262 10.8915H15.1226C15.0849 10.8821 15.046 10.8726 15.0083 10.8644C14.8575 10.8338 14.6985 10.8173 14.5347 10.8173C14.5088 10.8173 14.4852 10.8173 14.4617 10.8184C14.4039 10.8196 14.3474 10.8232 14.2896 10.8291C14.2578 10.8326 14.2272 10.8373 14.1954 10.842C14.1648 10.8467 14.1329 10.8514 14.1011 10.8585C13.2316 11.0305 12.5235 11.7103 12.2891 12.5905L12.2019 12.9168L12.1512 13.1018C11.7153 14.6617 11.3677 15.0175 9.82783 15.0658C9.69233 15.0706 9.54977 15.0717 9.39543 15.0717H9.14447C8.07467 15.1448 7.15804 15.8894 6.87763 16.938C6.82343 17.1395 6.79869 17.3421 6.79869 17.5389C6.79869 18.7748 7.80015 19.8434 9.10677 19.8434C10.1518 19.8434 11.0661 19.1424 11.3359 18.1327L11.4372 17.7557L11.4832 17.5836C11.9615 15.8564 12.3327 15.6019 14.2437 15.6019C14.3427 15.6019 14.4393 15.5972 14.5359 15.5854C14.563 15.5842 14.5901 15.5807 14.6184 15.576C14.9907 15.523 15.3465 15.3957 15.6587 15.2037C15.8661 15.0764 16.0534 14.9209 16.2172 14.7395C16.249 14.7041 16.2796 14.6676 16.3079 14.6311C16.3256 14.6099 16.3409 14.5887 16.3586 14.5675C16.3774 14.5392 16.3986 14.5086 16.4186 14.4803C16.5718 14.2529 16.6885 13.9984 16.7639 13.7215C16.8993 13.2196 16.8581 12.7212 16.6849 12.2806H16.6826ZM16.0958 11.4252C16.1265 11.4535 16.1559 11.4829 16.1854 11.5124L16.0958 11.4252ZM9.82665 15.0635H9.31649C9.25876 15.0635 9.20221 15.0647 9.14683 15.0694M0.236148 7.65853C0.271494 7.74572 0.310374 7.83055 0.355146 7.91302C0.383422 7.96722 0.415234 8.02142 0.450579 8.07208C0.467074 8.09918 0.483569 8.1251 0.503598 8.14984C0.521271 8.17576 0.540122 8.2005 0.558973 8.22406C0.61317 8.29358 0.669723 8.36074 0.733346 8.42554C0.75691 8.45146 0.78283 8.47502 0.807572 8.49858C0.812285 8.5033 0.816998 8.50683 0.82171 8.51272C0.847631 8.53511 0.872373 8.55867 0.899471 8.58106C0.925392 8.60226 0.948955 8.62229 0.973697 8.64115C0.983123 8.64939 0.992549 8.65528 1.00197 8.66235C1.02789 8.6812 1.05264 8.70006 1.07856 8.71773C1.10448 8.7354 1.13158 8.75425 1.1575 8.77075C1.17163 8.77899 1.18577 8.78724 1.19873 8.79667C1.25175 8.8273 1.30241 8.85676 1.35661 8.88268C1.37782 8.89328 1.39785 8.90153 1.42023 8.91095C1.45204 8.92509 1.48386 8.94158 1.51685 8.95572C1.60639 8.99225 1.69829 9.02288 1.79254 9.04762H1.79608C1.83378 9.05705 1.87266 9.06647 1.91036 9.07472C2.06117 9.10535 2.22023 9.12185 2.384 9.12185C2.40992 9.12185 2.43348 9.12185 2.45704 9.12067C2.51478 9.11949 2.57133 9.11596 2.62906 9.11007C2.66087 9.10653 2.6915 9.10182 2.72332 9.09711C2.75395 9.09239 2.78576 9.08768 2.81757 9.08061C3.68708 8.9086 4.39517 8.22878 4.62963 7.34867L4.71682 7.02231L4.76748 6.83733C5.20341 5.2774 5.55098 4.92159 7.09088 4.87328C7.22637 4.86857 7.36894 4.86739 7.52328 4.86739H7.77423C8.84403 4.79434 9.76067 4.04972 10.0411 3.00113C10.0953 2.79966 10.12 2.59701 10.12 2.40025C10.12 1.16433 9.11855 0.0957031 7.81194 0.0957031C6.76688 0.0957031 5.8526 0.796729 5.58279 1.80644L5.48147 2.18346L5.43552 2.35548C4.95717 4.08271 4.58604 4.3372 2.67501 4.3372C2.57604 4.3372 2.47943 4.34192 2.38282 4.3537C2.35572 4.35488 2.32862 4.35841 2.30034 4.36312C1.92803 4.41614 1.57222 4.54339 1.26 4.73543C1.05264 4.86268 0.865304 5.0182 0.701535 5.19964C0.669723 5.23499 0.63909 5.27151 0.610814 5.30803C0.593141 5.32924 0.577824 5.35045 0.560151 5.37166C0.5413 5.39993 0.520093 5.43057 0.500063 5.45884C0.346898 5.68623 0.230257 5.94072 0.154853 6.2176C0.0193603 6.71951 0.060597 7.21789 0.233792 7.65853H0.236148ZM0.822889 8.5139C0.792256 8.48562 0.762801 8.45617 0.733346 8.42671L0.822889 8.5139ZM7.09206 4.87564H7.60222C7.65995 4.87564 7.7165 4.87446 7.77188 4.86975" fill="url(#paint0_linear_1026821_15063)"/>
<defs>
<linearGradient id="paint0_linear_1026821_15063" x1="0.0759136" y1="9.97015" x2="16.8428" y2="9.97015" gradientUnits="userSpaceOnUse">
<stop stop-color="#0087FF"/>
<stop offset="1" stop-color="#007AFF"/>
</linearGradient>
</defs>
</svg>
